# xmcd CD database file
#
# Track frame offsets:
#	150
#	19267
#	36289
#	57808
#	78677
#	93455
#	114837
#	131173
#	149250
#
# Disc length: 2545 seconds
#
# Revision: 1
# Processed by: cddbd v1.5.1PL0 Copyright (c) Steve Scherf et al.
# Submitted via: CDex 1.51
#
DISCID=7809ef09
DTITLE=Styrofoam - Nothing's Lost
DYEAR=2004
DGENRE=Electronic
TTITLE0=Misguided (feat. Valerie Trebeljahr and alias)
TTITLE1=Ticket Out Of Town
TTITLE2=Couches In Alleys (feat. Ben Gibbard)
TTITLE3=Beequeen
TTITLE4=Your Eyes Only
TTITLE5=Front To Back (feat. Andrew Kenny)
TTITLE6=Safe and Broken
TTITLE7=Anything (feat. Bent Van Looy and Miki)
TTITLE8=Make It Mine
EXTD=YEAR: 2004
EXTT0=
EXTT1=
EXTT2=
EXTT3=
EXTT4=
EXTT5=
EXTT6=
EXTT7=
EXTT8=
PLAYORDER=
